<svg width="200" height="200" viewBox="0 0 200 200" xmlns="http://www.w3.org/2000/svg">
  <!-- Background circle -->
  <circle cx="100" cy="100" r="95" fill="#42a5f5" />

  <!-- Speech bubble shape -->
  <path d="M36.4,73.2C25.6,72.8,16.3,64.7,16.3,54.8c0-7.3,3.3-13.7,8.4-18.1c-1.2-3.1-2.1-6.3-2.7-9.5c-0.7-4.3,2.7-8.2,7.1-8.9   c3.3-4.8,9.3-7.9,15.8-7.9c9.2,0,17.1,6.1,19.4,14.5c3.1,0.4,6.3,1.1,9.4,2.1c5-7.5,13.8-12.4,23.9-12.4   c17.1,0,31.3,14.3,31.3,31.9c0,0.4,0,0.7,0,1.1c2.3-0.4,4.5-0.6,6.9-0.6c9.8,0,18,8.3,18,18.5c0,3.8-1.2,7.3-3.3,10.3   c6.4,2.6,11.1,8.5,11.1,15.5c0,9-7.3,16.3-16.3,16.3H52.6c-0.4,0-0.8,0-1.3,0c-8.4,0-15.3-6.9-15.3-15.3c0-3.4,1.1-6.6,3.2-9.2   c-2.1-1-4.4-1.8-6.8-2.3C34.6,75.2,35.5,74.2,36.4,73.2z" fill="#ffffff" />

  <!-- Chat icon inside the speech bubble -->
  <path d="M60.4,82.7c0,1.8-1.5,3.2-3.3,3.2H41.8c-1.8,0-3.3-1.4-3.3-3.2V69.9c0-1.8,1.5-3.2,3.3-3.2h15.3c1.8,0,3.3,1.4,3.3,3.2   V82.7z M151.3,99.9c1.3-2.7,2-5.7,2-8.8c0-12.2-9.8-22.1-21.8-22.1c-6.5,0-12.3,2.7-16.5,7h-0.5c-4.1-4.3-10-7-16.5-7   c-12,0-21.8,9.8-21.8,22.1c0,3.1,0.7,6.1,2,8.8c-3.2,3.7-5.2,8.5-5.2,13.7c0,12.2,9.8,22.1,21.8,22.1h44.7c12,0,21.8-9.8,21.8-22.1   C156.5,108.4,154.5,103.6,151.3,99.9z M84.2,115.9H39.5c-8,0-14.6-6.5-14.6-14.5c0-3.5,1.2-6.8,3.4-9.4c-1.9-1-3.3-2.9-3.3-5.1   c0-3.1,2.5-5.6,5.6-5.6H76c2.1,0,4,1.2,4.9,3.1c0.9-1.9,2.8-3.1,4.9-3.1h44.7c3.1,0,5.6,2.5,5.6,5.6c0,2.2-1.4,4.1-3.3,5.1   c2.3,2.6,3.4,5.9,3.4,9.4C98.8,109.4,92.2,115.9,84.2,115.9z" fill="#42a5f5" />
</svg>
